<svg xmlns="http://www.w3.org/2000/svg" width="41" height="41" viewBox="0 0 41 41">
	<defs>
		<style>.cls-08{fill:#2d2f39;stroke:#e8e6d4;stroke-miterlimit:10;}</style>
	</defs>
	<title>08</title>
	<polygon class="cls-08" points="21.13 0.5 22.38 0.58 23.63 0.74 24.86 0.97 26.08 1.28 27.28 1.67 28.45 2.14 29.58 2.67 30.69 3.28 31.75 3.95 32.76 4.69 33.73 5.49 34.65 6.35 35.51 7.27 36.31 8.24 37.05 9.25 37.72 10.31 38.33 11.42 38.86 12.55 39.33 13.72 39.72 14.92 40.03 16.14 40.26 17.37 40.42 18.62 40.5 19.87 40.5 21.13 40.42 22.38 40.26 23.63 40.03 24.86 39.72 26.08 39.33 27.28 38.86 28.45 38.33 29.58 37.72 30.69 37.05 31.75 36.31 32.76 35.51 33.73 34.65 34.65 33.73 35.51 32.76 36.31 31.75 37.05 30.69 37.72 29.58 38.33 28.45 38.86 27.28 39.33 26.08 39.72 24.86 40.03 23.63 40.26 22.38 40.42 21.13 40.5 19.87 40.5 18.62 40.42 17.37 40.26 16.14 40.03 14.92 39.72 13.72 39.33 12.55 38.86 11.42 38.33 10.31 37.72 9.25 37.05 8.24 36.31 7.27 35.51 6.35 34.65 5.49 33.73 4.69 32.76 3.95 31.75 3.28 30.69 2.67 29.58 2.14 28.45 1.67 27.28 1.28 26.08 0.97 24.86 0.74 23.63 0.58 22.38 0.5 21.13 0.5 19.87 0.58 18.62 0.74 17.37 0.97 16.14 1.28 14.92 1.67 13.72 2.14 12.55 2.67 11.42 3.28 10.31 3.95 9.25 4.69 8.24 5.49 7.27 6.35 6.35 7.27 5.49 8.24 4.69 9.25 3.95 10.31 3.28 11.42 2.67 12.55 2.14 13.72 1.67 14.92 1.28 16.14 0.97 17.37 0.74 18.62 0.58 19.87 0.5 21.13 0.5"/>
</svg>
