<svg xmlns="http://www.w3.org/2000/svg" width="41.97" height="41.57" viewBox="0 0 41.97 41.57">
	<defs>
		<style>.cls-55{fill:#2d2f39;stroke:#e8e6d4;stroke-miterlimit:10;}</style>
	</defs>
	<title>55</title>
	<path class="cls-55" d="M15.56,1.74,9.16,4.82A12.5,12.5,0,0,0,2.39,13.3L.81,20.23A12.5,12.5,0,0,0,3.23,30.8l4.43,5.56a12.5,12.5,0,0,0,9.77,4.71h7.11a12.5,12.5,0,0,0,9.77-4.71l4.43-5.56a12.5,12.5,0,0,0,2.41-10.58L39.57,13.3a12.5,12.5,0,0,0-6.76-8.48l-6.4-3.08A12.5,12.5,0,0,0,15.56,1.74Z"/>
</svg>
