<svg xmlns="http://www.w3.org/2000/svg" width="41" height="41" viewBox="0 0 41 41">
	<defs>
		<style>.cls-65{fill:#2d2f39;stroke:#e8e6d4;stroke-miterlimit:10;}</style>
	</defs>
	<title>65</title>
	<path class="cls-65" d="M32.45,4.16l4.39,4.39a12.5,12.5,0,0,1,3.66,8.84v6.21a12.5,12.5,0,0,1-3.66,8.84l-4.39,4.39a12.5,12.5,0,0,1-8.84,3.66H17.39a12.5,12.5,0,0,1-8.84-3.66L4.16,32.45A12.5,12.5,0,0,1,.5,23.61V17.39A12.5,12.5,0,0,1,4.16,8.55L8.55,4.16A12.5,12.5,0,0,1,17.39.5h6.21A12.5,12.5,0,0,1,32.45,4.16Z"/>
</svg>
