<svg xmlns="http://www.w3.org/2000/svg" width="41" height="41" viewBox="0 0 41 41">
	<defs>
		<style>.cls-67{fill:#2d2f39;stroke:#e8e6d4;stroke-miterlimit:10;}</style>
	</defs>
	<title>67</title>
	<path class="cls-67" d="M33.91,5.63l1.46,1.46A17.5,17.5,0,0,1,40.5,19.46v2.07a17.5,17.5,0,0,1-5.13,12.37l-1.46,1.46A17.5,17.5,0,0,1,21.54,40.5H19.46A17.5,17.5,0,0,1,7.09,35.37L5.63,33.91A17.5,17.5,0,0,1,.5,21.54V19.46A17.5,17.5,0,0,1,5.63,7.09L7.09,5.63A17.5,17.5,0,0,1,19.46.5h2.07A17.5,17.5,0,0,1,33.91,5.63Z"/>
</svg>
