<svg xmlns="http://www.w3.org/2000/svg" width="42.48" height="41.93" viewBox="0 0 42.48 41.93">
	<defs>
		<style>.cls-71{fill:#2d2f39;stroke:#e8e6d4;stroke-miterlimit:10;}</style>
	</defs>
	<title>71</title>
	<path class="cls-71" d="M20.39.65,8.48,5a2.5,2.5,0,0,0-1.31,1.1l-6.33,11a2.5,2.5,0,0,0-.3,1.68l2.2,12.48a2.5,2.5,0,0,0,.86,1.48l9.71,8.14a2.5,2.5,0,0,0,1.61.58H27.58a2.5,2.5,0,0,0,1.61-.58l9.71-8.14a2.5,2.5,0,0,0,.86-1.48l2.2-12.48a2.5,2.5,0,0,0-.3-1.68l-6.33-11A2.5,2.5,0,0,0,34,5L22.1.65A2.5,2.5,0,0,0,20.39.65Z"/>
</svg>
