<svg xmlns="http://www.w3.org/2000/svg" width="42.24" height="41.77" viewBox="0 0 42.24 41.77">
	<defs>
		<style>.cls-72{fill:#2d2f39;stroke:#e8e6d4;stroke-miterlimit:10;}</style>
	</defs>
	<title>72</title>
	<path class="cls-72" d="M19.41.8,9.21,4.51a5,5,0,0,0-2.62,2.2l-5.42,9.4a5,5,0,0,0-.59,3.37L2.46,30.16a5,5,0,0,0,1.71,3l8.31,7a5,5,0,0,0,3.21,1.17H26.55a5,5,0,0,0,3.21-1.17l8.31-7a5,5,0,0,0,1.71-3l1.88-10.69a5,5,0,0,0-.59-3.37l-5.42-9.4A5,5,0,0,0,33,4.51L22.83.8A5,5,0,0,0,19.41.8Z"/>
</svg>
