<svg xmlns="http://www.w3.org/2000/svg" width="42" height="41.61" viewBox="0 0 42 41.61">
	<defs>
		<style>.cls-73{fill:#2d2f39;stroke:#e8e6d4;stroke-miterlimit:10;}</style>
	</defs>
	<title>73</title>
	<path class="cls-73" d="M18.44,1,9.95,4A7.5,7.5,0,0,0,6,7.34L1.5,15.16a7.5,7.5,0,0,0-.89,5.05L2.18,29.1a7.5,7.5,0,0,0,2.57,4.44l6.92,5.8a7.5,7.5,0,0,0,4.82,1.75h9a7.5,7.5,0,0,0,4.82-1.75l6.92-5.8a7.5,7.5,0,0,0,2.57-4.44l1.57-8.89a7.5,7.5,0,0,0-.89-5.05L36,7.34A7.5,7.5,0,0,0,32.05,4L23.57,1A7.5,7.5,0,0,0,18.44,1Z"/>
</svg>
