<svg xmlns="http://www.w3.org/2000/svg" width="41.76" height="41.45" viewBox="0 0 41.76 41.45">
	<defs>
		<style>.cls-74{fill:#2d2f39;stroke:#e8e6d4;stroke-miterlimit:10;}</style>
	</defs>
	<title>74</title>
	<path class="cls-74" d="M17.46,1.1,10.68,3.57A10,10,0,0,0,5.44,8L1.84,14.21A10,10,0,0,0,.65,20.95L1.9,28A10,10,0,0,0,5.32,34l5.52,4.63a10,10,0,0,0,6.43,2.34h7.21a10,10,0,0,0,6.43-2.34L36.44,34A10,10,0,0,0,39.86,28l1.25-7.1a10,10,0,0,0-1.19-6.74L36.32,8a10,10,0,0,0-5.24-4.4L24.3,1.1A10,10,0,0,0,17.46,1.1Z"/>
</svg>
