<svg xmlns="http://www.w3.org/2000/svg" width="41.52" height="41.29" viewBox="0 0 41.52 41.29">
	<defs>
		<style>.cls-75{fill:#2d2f39;stroke:#e8e6d4;stroke-miterlimit:10;}</style>
	</defs>
	<title>75</title>
	<path class="cls-75" d="M16.49,1.25,11.42,3.1a12.5,12.5,0,0,0-6.55,5.5l-2.7,4.67A12.5,12.5,0,0,0,.69,21.68L1.63,27A12.5,12.5,0,0,0,5.9,34.4L10,37.86a12.5,12.5,0,0,0,8,2.92h5.39a12.5,12.5,0,0,0,8-2.92l4.13-3.46A12.5,12.5,0,0,0,39.9,27l.94-5.31a12.5,12.5,0,0,0-1.48-8.42l-2.7-4.67A12.5,12.5,0,0,0,30.1,3.1L25,1.25A12.5,12.5,0,0,0,16.49,1.25Z"/>
</svg>
