<svg xmlns="http://www.w3.org/2000/svg" width="41.28" height="41.12" viewBox="0 0 41.28 41.12">
	<defs>
		<style>.cls-76{fill:#2d2f39;stroke:#e8e6d4;stroke-miterlimit:10;}</style>
	</defs>
	<title>76</title>
	<path class="cls-76" d="M15.51,1.4,12.16,2.63a15,15,0,0,0-7.86,6.6L2.51,12.31A15,15,0,0,0,.73,22.42l.62,3.52a15,15,0,0,0,5.13,8.89l2.74,2.3a15,15,0,0,0,9.64,3.51h3.57a15,15,0,0,0,9.64-3.51l2.74-2.3a15,15,0,0,0,5.13-8.89l.62-3.52a15,15,0,0,0-1.78-10.1L37,9.22a15,15,0,0,0-7.86-6.6L25.77,1.4A15,15,0,0,0,15.51,1.4Z"/>
</svg>
