<svg xmlns="http://www.w3.org/2000/svg" width="41.04" height="40.96" viewBox="0 0 41.04 40.96">
	<defs>
		<style>.cls-77{fill:#2d2f39;stroke:#e8e6d4;stroke-miterlimit:10;}</style>
	</defs>
	<title>77</title>
	<path class="cls-77" d="M14.54,1.56l-1.65.6A17.5,17.5,0,0,0,3.72,9.85l-.88,1.52A17.5,17.5,0,0,0,.77,23.15l.3,1.72a17.5,17.5,0,0,0,6,10.37L8.4,36.37a17.5,17.5,0,0,0,11.25,4.09H21.4a17.5,17.5,0,0,0,11.25-4.09L34,35.24a17.5,17.5,0,0,0,6-10.37l.3-1.72A17.5,17.5,0,0,0,38.2,11.36l-.88-1.52a17.5,17.5,0,0,0-9.17-7.69l-1.65-.6A17.5,17.5,0,0,0,14.54,1.56Z"/>
</svg>
