<svg xmlns="http://www.w3.org/2000/svg" width="40.81" height="40.81" viewBox="0 0 40.81 40.81">
	<defs>
		<style>.cls-78{fill:#2d2f39;stroke:#e8e6d4;stroke-miterlimit:10;}</style>
	</defs>
	<title>78</title>
	<path class="cls-78" d="M13.6,1.7h0A19.91,19.91,0,0,0,3.17,10.45h0A19.91,19.91,0,0,0,.8,23.86h0A19.91,19.91,0,0,0,7.61,35.65h0a19.91,19.91,0,0,0,12.79,4.66h0A19.91,19.91,0,0,0,33.2,35.65h0A19.91,19.91,0,0,0,40,23.86h0a19.91,19.91,0,0,0-2.36-13.41h0A19.91,19.91,0,0,0,27.21,1.7h0A19.91,19.91,0,0,0,13.6,1.7Z"/>
</svg>
