<svg xmlns="http://www.w3.org/2000/svg" width="42.8" height="41" viewBox="0 0 42.8 41">
	<defs>
		<style>.cls-81{fill:#2d2f39;stroke:#e8e6d4;stroke-miterlimit:10;}</style>
	</defs>
	<title>81</title>
	<path class="cls-81" d="M28.56,1l9.2,6.68a2.5,2.5,0,0,1,.91,1.25l3.51,10.82a2.5,2.5,0,0,1,0,1.55L38.66,32.09a2.5,2.5,0,0,1-.91,1.25L28.56,40a2.5,2.5,0,0,1-1.47.48H15.71A2.5,2.5,0,0,1,14.25,40L5,33.34a2.5,2.5,0,0,1-.91-1.25L.62,21.27a2.5,2.5,0,0,1,0-1.55L4.14,8.91A2.5,2.5,0,0,1,5,7.66L14.25,1A2.5,2.5,0,0,1,15.71.5H27.09A2.5,2.5,0,0,1,28.56,1Z"/>
</svg>
