<svg xmlns="http://www.w3.org/2000/svg" width="42.54" height="41" viewBox="0 0 42.54 41">
	<defs>
		<style>.cls-82{fill:#2d2f39;stroke:#e8e6d4;stroke-miterlimit:10;}</style>
	</defs>
	<title>82</title>
	<path class="cls-82" d="M29.08,1.45,37,7.18a5,5,0,0,1,1.82,2.5l3,9.27a5,5,0,0,1,0,3.09l-3,9.27A5,5,0,0,1,37,33.82l-7.89,5.73a5,5,0,0,1-2.94,1H16.4a5,5,0,0,1-2.94-1L5.57,33.82a5,5,0,0,1-1.82-2.5L.74,22A5,5,0,0,1,.74,19l3-9.27a5,5,0,0,1,1.82-2.5l7.89-5.73A5,5,0,0,1,16.4.5h9.75A5,5,0,0,1,29.08,1.45Z"/>
</svg>
