<svg xmlns="http://www.w3.org/2000/svg" width="42.29" height="41" viewBox="0 0 42.29 41">
	<defs>
		<style>.cls-83{fill:#2d2f39;stroke:#e8e6d4;stroke-miterlimit:10;}</style>
	</defs>
	<title>83</title>
	<path class="cls-83" d="M29.61,1.93l6.57,4.77a7.5,7.5,0,0,1,2.72,3.75l2.51,7.73a7.5,7.5,0,0,1,0,4.64l-2.51,7.73a7.5,7.5,0,0,1-2.72,3.75l-6.57,4.77A7.5,7.5,0,0,1,25.2,40.5H17.08a7.5,7.5,0,0,1-4.41-1.43L6.1,34.29a7.5,7.5,0,0,1-2.72-3.75L.87,22.82a7.5,7.5,0,0,1,0-4.64l2.51-7.73A7.5,7.5,0,0,1,6.1,6.71l6.57-4.77A7.5,7.5,0,0,1,17.08.5H25.2A7.5,7.5,0,0,1,29.61,1.93Z"/>
</svg>
