<svg xmlns="http://www.w3.org/2000/svg" width="42.03" height="41" viewBox="0 0 42.03 41">
	<defs>
		<style>.cls-84{fill:#2d2f39;stroke:#e8e6d4;stroke-miterlimit:10;}</style>
	</defs>
	<title>84</title>
	<path class="cls-84" d="M30.14,2.41,35.4,6.23a10,10,0,0,1,3.63,5l2,6.18a10,10,0,0,1,0,6.18l-2,6.18a10,10,0,0,1-3.63,5l-5.26,3.82a10,10,0,0,1-5.88,1.91h-6.5a10,10,0,0,1-5.88-1.91L6.63,34.77a10,10,0,0,1-3.63-5L1,23.59a10,10,0,0,1,0-6.18l2-6.18a10,10,0,0,1,3.63-5l5.26-3.82A10,10,0,0,1,17.77.5h6.5A10,10,0,0,1,30.14,2.41Z"/>
</svg>
