<svg xmlns="http://www.w3.org/2000/svg" width="41.77" height="41" viewBox="0 0 41.77 41">
	<defs>
		<style>.cls-85{fill:#2d2f39;stroke:#e8e6d4;stroke-miterlimit:10;}</style>
	</defs>
	<title>85</title>
	<path class="cls-85" d="M30.67,2.89l3.94,2.86A12.5,12.5,0,0,1,39.15,12l1.51,4.64a12.5,12.5,0,0,1,0,7.73L39.15,29a12.5,12.5,0,0,1-4.54,6.25l-3.94,2.86a12.5,12.5,0,0,1-7.35,2.39H18.45a12.5,12.5,0,0,1-7.35-2.39L7.16,35.25A12.5,12.5,0,0,1,2.62,29L1.11,24.36a12.5,12.5,0,0,1,0-7.73L2.62,12A12.5,12.5,0,0,1,7.16,5.75L11.1,2.89A12.5,12.5,0,0,1,18.45.5h4.87A12.5,12.5,0,0,1,30.67,2.89Z"/>
</svg>
