<svg xmlns="http://www.w3.org/2000/svg" width="41.51" height="41" viewBox="0 0 41.51 41">
	<defs>
		<style>.cls-86{fill:#2d2f39;stroke:#e8e6d4;stroke-miterlimit:10;}</style>
	</defs>
	<title>86</title>
	<path class="cls-86" d="M31.2,3.36l2.63,1.91a15,15,0,0,1,5.45,7.5l1,3.09a15,15,0,0,1,0,9.27l-1,3.09a15,15,0,0,1-5.45,7.5L31.2,37.64a15,15,0,0,1-8.82,2.86H19.13a15,15,0,0,1-8.82-2.86L7.69,35.73a15,15,0,0,1-5.45-7.5l-1-3.09a15,15,0,0,1,0-9.27l1-3.09a15,15,0,0,1,5.45-7.5l2.63-1.91A15,15,0,0,1,19.13.5h3.25A15,15,0,0,1,31.2,3.36Z"/>
</svg>
