<svg xmlns="http://www.w3.org/2000/svg" width="41.26" height="41" viewBox="0 0 41.26 41">
	<defs>
		<style>.cls-87{fill:#2d2f39;stroke:#e8e6d4;stroke-miterlimit:10;}</style>
	</defs>
	<title>87</title>
	<path class="cls-87" d="M31.73,3.84,33,4.8a17.5,17.5,0,0,1,6.36,8.75l.5,1.55a17.5,17.5,0,0,1,0,10.82l-.5,1.55A17.5,17.5,0,0,1,33,36.2l-1.31,1A17.5,17.5,0,0,1,21.44,40.5H19.82A17.5,17.5,0,0,1,9.53,37.16l-1.31-1a17.5,17.5,0,0,1-6.36-8.75l-.5-1.55a17.5,17.5,0,0,1,0-10.82l.5-1.55A17.5,17.5,0,0,1,8.22,4.8l1.31-1A17.5,17.5,0,0,1,19.82.5h1.62A17.5,17.5,0,0,1,31.73,3.84Z"/>
</svg>
